<svg width="99" height="99" viewBox="0 0 99 99" fill="none" xmlns="http://www.w3.org/2000/svg">
<g clip-path="url(#clip0)">
<path d="M94.6494 66.1289H94.2514C95.2854 64.7067 95.7567 63.0895 95.5815 61.4128C95.188 57.646 91.5134 53.8838 88.1681 51.1911C88.1772 51.17 88.187 51.1458 88.196 51.1247C88.6281 50.065 88.3932 48.8421 87.5948 48.0098C86.9573 47.3459 86.2428 46.7016 85.4732 46.0951C84.844 45.5996 83.9323 45.7076 83.4368 46.3368C82.9406 46.9659 83.0486 47.8776 83.6778 48.3731C84.344 48.898 84.958 49.4524 85.5102 50.0295C85.3931 50.3172 85.245 50.6722 85.0713 51.0809C83.7473 54.1784 80.3068 61.6877 76.3135 66.1289H71.5316C72.2265 64.4121 73.0052 61.4754 73.8799 56.2495C74.6156 51.8543 75.1821 47.2197 75.5287 44.0965C76.46 44.4175 77.5416 44.8344 78.6754 45.3609C78.8733 45.4523 79.0802 45.4953 79.2841 45.4953C79.8317 45.4953 80.3559 45.1842 80.6014 44.6547C80.9383 43.9281 80.6218 43.0663 79.8952 42.7294C78.3717 42.0224 76.9359 41.4967 75.7901 41.1251C75.7002 40.11 75.0801 39.1976 74.1337 38.7557C72.0777 37.7912 67.5768 36.1726 60.5192 36.159C58.1498 36.1635 56.0697 36.3493 54.2728 36.631V32.0644C54.2728 28.2796 51.1934 25.2002 47.4085 25.2002H40.7021V20.0127C40.7021 19.2121 40.0533 18.5625 39.252 18.5625H18.6592C17.8578 18.5625 17.209 19.2121 17.209 20.0127C17.209 20.8133 17.8578 21.4629 18.6592 21.4629H37.8018V44.5338C36.2685 45.4923 34.7654 46.6404 33.4466 48.0113C32.6498 48.8429 32.4149 50.065 32.8469 51.1247C32.856 51.1458 32.8658 51.17 32.8749 51.1919C29.8491 53.6263 26.5575 56.9353 25.6639 60.3281H7.92773C7.44811 60.3281 7.05762 59.9376 7.05762 59.458V21.4629H12.375C13.1764 21.4629 13.8252 20.8133 13.8252 20.0127C13.8252 19.2121 13.1764 18.5625 12.375 18.5625H5.60742C4.80604 18.5625 4.15723 19.2121 4.15723 20.0127V59.458C4.15723 61.3055 5.49413 62.8441 7.25098 63.1643V66.1289H4.35059C1.95172 66.1289 0 68.0806 0 70.4795C0 72.8784 1.95172 74.8301 4.35059 74.8301H5.7041V75.3135C5.7041 78.0326 7.91565 80.2441 10.6348 80.2441H88.3652C91.0844 80.2441 93.2959 78.0326 93.2959 75.3135V74.8301H94.6494C97.0483 74.8301 99 72.8784 99 70.4795C99 68.0806 97.0483 66.1289 94.6494 66.1289ZM86.9724 53.9624C90.4167 56.8529 92.4787 59.628 92.6969 61.7141C92.8646 63.3237 91.9016 64.9166 90.0458 66.1289H80.0621C82.9504 62.3108 85.3908 57.47 86.9724 53.9624ZM72.9018 41.3812L72.8345 42.027C72.5362 44.8805 71.9063 50.4494 71.0346 55.6762C69.5973 64.2965 68.4908 65.8865 68.2679 66.1289H52.7743C52.5477 65.8804 51.4427 64.2799 50.0083 55.6762C49.1367 50.4494 48.506 44.8805 48.2077 42.0262L48.1963 41.9144C48.1963 41.9114 48.1956 41.9076 48.1956 41.9046L48.1412 41.3812C49.6208 40.687 53.7894 39.0722 60.5185 39.0586C67.2536 39.0714 71.4214 40.687 72.9018 41.3812ZM40.7369 28.1006H47.4078C49.5937 28.1006 51.3717 29.8793 51.3717 32.0644V37.2134C50.2349 37.4974 49.2689 37.807 48.4713 38.1039V32.8379C48.4713 31.8257 47.6472 31.0009 46.6344 31.0009H40.7369V28.1006ZM45.5709 33.9013V40.0397C45.4666 40.2391 45.3858 40.4499 45.3307 40.6689H40.7021V33.9013H45.5709ZM39.9166 46.6381C39.9672 46.6124 40.0171 46.5845 40.0639 46.552C40.0692 46.5482 40.0752 46.5452 40.0813 46.5415C41.993 45.4357 43.9281 44.6418 45.5142 44.0958C45.8609 47.219 46.4274 51.8543 47.1631 56.2495C48.0385 61.4754 48.8164 64.4121 49.5113 66.1289H44.7332C40.7286 61.6801 37.2927 54.1769 35.9724 51.0824C35.7979 50.6722 35.6499 50.3172 35.5381 50.0204C36.8425 48.6646 38.3682 47.549 39.9166 46.6381ZM34.0698 53.9631C35.6491 57.4678 38.088 62.307 40.9824 66.1289H30.9224C29.1769 64.962 28.238 63.4249 28.3347 61.8584C28.337 61.8123 28.3407 61.7662 28.346 61.7141C28.5643 59.628 30.6263 56.8537 34.0698 53.9631ZM10.1514 63.2285H25.5257C25.7047 64.2505 26.1284 65.2293 26.7697 66.1289H10.1514V63.2285ZM94.6494 71.9297H18.5867C17.7853 71.9297 17.1365 72.5793 17.1365 73.3799C17.1365 74.1805 17.7853 74.8301 18.5867 74.8301H90.3955V75.3135C90.3955 76.4328 89.4846 77.3438 88.3652 77.3438H10.6348C9.5154 77.3438 8.60449 76.4328 8.60449 75.3135V74.8301H12.375C13.1764 74.8301 13.8252 74.1805 13.8252 73.3799C13.8252 72.5793 13.1764 71.9297 12.375 71.9297H4.35059C3.55071 71.9297 2.90039 71.2794 2.90039 70.4795C2.90039 69.6796 3.55071 69.0293 4.35059 69.0293H94.6494C95.4493 69.0293 96.0996 69.6796 96.0996 70.4795C96.0996 71.2794 95.4493 71.9297 94.6494 71.9297Z" fill="black"/>
</g>
<defs>
<clipPath id="clip0">
<rect width="99" height="99" fill="white"/>
</clipPath>
</defs>
</svg>
